PathFileType	4	(X/Y/Z)	/Users/itak/Documents/Research/Walk-IL/dataset/trc/00420_00012.trc
DataRate	CameraRate	NumFrames	NumMarkers	Units	OrigDataRate	OrigDataStartFrame	OrigNumFrames
100.000000	100.000000	4	53	mm	100.000000	308	617
Frame#	Time	RPSI			LPSI			L3			STRN			T10			C7			CLAV			RBAK			LBAK			LSHO			LUPA			LAEL			LAOL			LWTS			LWPS			LFRA			LIFD			LHPS			LHTS			RSHO			RUPA			RAEL			RAOL			RWTS			RWPS			RFRA			RIFD			RHTS			RHPS			RBHD			LFHD			RFHD			LBHD			LHIP			RHIP			RASI			LASI			LKNE			LTHI			LANK			LTIP			LTOE			LMT1			LMT5			LHEE			RKNE			RTHI			RANK			RTIP			RTOE			RMT1			RMT5			RHEE			
		X1	Y1	Z1	X2	Y2	Z2	X3	Y3	Z3	X4	Y4	Z4	X5	Y5	Z5	X6	Y6	Z6	X7	Y7	Z7	X8	Y8	Z8	X9	Y9	Z9	X10	Y10	Z10	X11	Y11	Z11	X12	Y12	Z12	X13	Y13	Z13	X14	Y14	Z14	X15	Y15	Z15	X16	Y16	Z16	X17	Y17	Z17	X18	Y18	Z18	X19	Y19	Z19	X20	Y20	Z20	X21	Y21	Z21	X22	Y22	Z22	X23	Y23	Z23	X24	Y24	Z24	X25	Y25	Z25	X26	Y26	Z26	X27	Y27	Z27	X28	Y28	Z28	X29	Y29	Z29	X30	Y30	Z30	X31	Y31	Z31	X32	Y32	Z32	X33	Y33	Z33	X34	Y34	Z34	X35	Y35	Z35	X36	Y36	Z36	X37	Y37	Z37	X38	Y38	Z38	X39	Y39	Z39	X40	Y40	Z40	X41	Y41	Z41	X42	Y42	Z42	X43	Y43	Z43	X44	Y44	Z44	X45	Y45	Z45	X46	Y46	Z46	X47	Y47	Z47	X48	Y48	Z48	X49	Y49	Z49	X50	Y50	Z50	X51	Y51	Z51	X52	Y52	Z52	X53	Y53	Z53	

309	3.08	-654.9336547851562	936.074951171875	-556.349365234375	-602.5026245117188	924.41064453125	-678.1630859375	-635.1851196289062	1011.579956054688	-611.9319458007812	-428.9452209472656	1165.364135742188	-496.1090698242188	-648.5301513671875	1116.317993164062	-617.6638793945312	-608.665283203125	1364.212158203125	-599.919677734375	-475.7000122070312	1284.25830078125	-520.547119140625	-678.6044921875	1219.671997070312	-563.4839477539062	-571.9715576171875	1330.84521484375	-695.501953125	-474.9285583496094	1345.687377929688	-699.3117065429688	-484.2385864257812	1240.746826171875	-785.7901000976562	-498.5791015625	1047.140625	-828.3121948242188	-573.4505615234375	1036.036987304688	-791.9476318359375	-486.8550109863281	811.0316162109375	-785.5995483398438	-505.8790283203125	817.0269165039062	-866.8404541015625	-502.2978820800781	943.149658203125	-848.387451171875	-539.7760620117188	641.8065185546875	-814.7600708007812	-522.4146118164062	730.940673828125	-866.9749755859375	-491.1920166015625	714.5685424804688	-812.0751953125	-634.3262329101562	1343.17431640625	-435.5438842773438	-676.0648193359375	1277.981689453125	-390.7760620117188	-675.7396850585938	1018.966735839844	-325.9155578613281	-644.8926391601562	999.18896484375	-414.847900390625	-467.7354736328125	908.1599731445312	-251.4818115234375	-516.1165161132812	872.5484619140625	-209.4482727050781	-638.3043823242188	971.4955444335938	-287.4384155273438	-372.7380981445312	772.6516723632812	-203.3702545166016	-405.4661865234375	838.1904907226562	-198.4793090820312	-460.8804626464844	806.2767944335938	-182.1673889160156	-618.2300415039062	1549.590942382812	-513.6881713867188	-423.7796630859375	1555.517822265625	-547.4807739257812	-500.3704223632812	1558.52197265625	-452.0615234375	-531.8115844726562	1542.676391601562	-648.8629150390625	-472.3540954589844	922.8615112304688	-736.5778198242188	-633.7119750976562	911.6546020507812	-416.0936279296875	-492.8927001953125	918.8423461914062	-400.9667358398438	-390.8196716308594	928.0382690429688	-645.5737915039062	-259.354736328125	483.11181640625	-635.9595336914062	-320.1617736816406	605.8023071289062	-672.3766479492188	-161.7890930175781	35.99203872680664	-600.935791015625	-203.9681243896484	254.0015869140625	-631.4173583984375	-52.27900695800781	119.3604125976562	-435.0367431640625	-125.3644561767578	87.36867523193359	-452.7611083984375	-60.57973098754883	73.68460845947266	-535.7664794921875	-224.4649200439453	24.64356231689453	-578.4176025390625	-623.3991088867188	429.4392395019531	-501.5836486816406	-571.414794921875	677.2647094726562	-413.9582214355469	-786.8694458007812	61.8475341796875	-619.5623168945312	-641.618896484375	306.4517517089844	-544.9578857421875	-605.191650390625	36.17370223999023	-666.5094604492188	-678.5055541992188	42.62005233764648	-703.5926513671875	-706.4859619140625	46.98433303833008	-608.3046264648438	-856.0068969726562	65.0882568359375	-681.73291015625	
310	3.09	-643.1538696289062	934.9146728515625	-553.4479370117188	-589.9640502929688	923.6712646484375	-674.992919921875	-623.5621948242188	1010.339111328125	-608.5897216796875	-418.2427978515625	1164.498046875	-491.7029113769531	-636.51025390625	1114.9736328125	-613.8148803710938	-597.6455688476562	1363.125122070312	-597.0244140625	-465.0358276367188	1283.267456054688	-516.5630493164062	-667.3284912109375	1218.345947265625	-560.8303833007812	-560.0724487304688	1329.651611328125	-692.2957763671875	-463.0395812988281	1344.604370117188	-695.3878173828125	-471.554443359375	1239.5966796875	-781.8673706054688	-485.5276184082031	1045.91845703125	-824.3418579101562	-561.1399536132812	1035.046020507812	-789.0322875976562	-476.0929565429688	809.5975341796875	-781.8716430664062	-493.7665100097656	816.0283813476562	-863.490478515625	-489.490234375	942.0587158203125	-844.6246337890625	-530.39208984375	641.034912109375	-812.4619140625	-511.0991516113281	730.072998046875	-863.958251953125	-480.9195556640625	713.2569580078125	-808.7501831054688	-624.3778686523438	1342.139770507812	-432.7976684570312	-666.7213134765625	1276.931030273438	-388.5660095214844	-668.1050415039062	1017.374145507812	-325.9026794433594	-635.3258056640625	998.2639770507812	-414.4593200683594	-461.8178100585938	905.331787109375	-248.6626434326172	-510.7889404296875	869.5106201171875	-207.7605133056641	-631.5447387695312	969.4991455078125	-287.0777587890625	-367.7331237792969	769.5508422851562	-199.3203277587891	-400.6274108886719	835.08837890625	-194.7339935302734	-456.6644592285156	803.0872802734375	-179.9596557617188	-608.5550537109375	1548.406372070312	-511.2384033203125	-413.786376953125	1555.048095703125	-543.156005859375	-491.34033203125	1557.848510742188	-448.5022888183594	-520.8079223632812	1541.764404296875	-645.5720825195312	-459.5059204101562	922.863037109375	-732.625732421875	-622.805419921875	909.9717407226562	-413.1533203125	-481.9075317382812	917.3121948242188	-396.9274597167969	-378.5568237304688	928.0564575195312	-640.9688110351562	-246.4218292236328	483.43310546875	-625.5530395507812	-306.3998107910156	605.8914184570312	-664.0423583984375	-157.8876495361328	34.80628967285156	-597.7860107421875	-194.8382568359375	253.2294769287109	-623.399169921875	-52.79449462890625	110.5575714111328	-426.044677734375	-125.72265625	80.609619140625	-446.9776611328125	-58.49037933349609	68.07094573974609	-528.1723022460938	-221.7113342285156	24.62492561340332	-577.6224975585938	-614.52099609375	428.6570129394531	-500.2000122070312	-561.4111328125	675.7117309570312	-411.6782531738281	-785.826904296875	64.47258758544922	-619.5059814453125	-635.1661987304688	306.01806640625	-543.518798828125	-605.0570068359375	36.09542465209961	-666.4312133789062	-677.744384765625	43.58298110961914	-703.2760620117188	-705.7252197265625	47.47708892822266	-608.043701171875	-854.7548828125	70.20708465576172	-682.0421752929688	
311	3.1	-631.1348266601562	934.1385498046875	-550.5020751953125	-577.0614013671875	923.2715454101562	-671.75390625	-611.6315307617188	1009.330749511719	-605.1801147460938	-407.3904418945312	1163.964111328125	-487.2863464355469	-624.4019165039062	1113.868408203125	-609.94970703125	-586.5711059570312	1362.295288085938	-594.0413818359375	-454.3255004882812	1282.572875976562	-512.5244140625	-655.9951171875	1217.27294921875	-558.0821533203125	-548.187744140625	1328.690673828125	-689.0120849609375	-451.1664123535156	1343.81689453125	-691.4338989257812	-458.7911376953125	1238.666015625	-777.8364868164062	-472.1184387207031	1044.861206054688	-820.1141357421875	-548.3922729492188	1034.131469726562	-785.8333740234375	-464.7874450683594	808.3729248046875	-777.8496704101562	-480.9335632324219	815.2298583984375	-859.791259765625	-476.1886596679688	941.132080078125	-840.5546875	-520.3914184570312	640.4453735351562	-810.2332153320312	-498.9821166992188	729.4326171875	-860.733642578125	-470.0598754882812	712.1107177734375	-805.194580078125	-614.3507080078125	1341.3564453125	-429.9654235839844	-657.2296142578125	1276.1357421875	-386.23974609375	-660.468017578125	1016.0419921875	-325.9404907226562	-625.8588256835938	997.6325073242188	-414.1117858886719	-456.1983337402344	902.11669921875	-246.0724487304688	-505.9044799804688	866.1580810546875	-206.4199676513672	-624.8685913085938	967.6329345703125	-286.8434143066406	-363.42578125	765.7639770507812	-195.6998748779297	-396.28173828125	831.3740844726562	-191.3305053710938	-453.0775451660156	799.4029541015625	-178.2082977294922	-598.8369750976562	1547.512817382812	-508.6991577148438	-403.771240234375	1554.879150390625	-538.7413940429688	-482.2640991210938	1557.460083007812	-444.8543701171875	-509.7703552246094	1541.170532226562	-642.18701171875	-446.3401794433594	923.0493774414062	-728.6318969726562	-611.6783447265625	908.6748657226562	-410.1669616699219	-470.7051086425781	916.1202392578125	-392.8013305664062	-366.0519714355469	928.3092651367188	-636.2307739257812	-233.855712890625	483.871337890625	-614.9833984375	-293.0281066894531	605.9324951171875	-655.6248779296875	-154.8361511230469	34.02212524414062	-595.3783569335938	-186.2410278320312	252.5857238769531	-615.5531005859375	-53.84086227416992	101.1362609863281	-417.8325805664062	-126.7214889526367	73.64418792724609	-441.9837341308594	-57.24468612670898	62.22871017456055	-521.4019775390625	-219.6533508300781	25.17073059082031	-577.37939453125	-605.12841796875	428.1123046875	-498.441162109375	-551.13037109375	674.4777221679688	-409.2207336425781	-784.5502319335938	67.49286651611328	-619.2715454101562	-628.3208618164062	305.8807983398438	-541.5827026367188	-604.9490356445312	36.03989028930664	-666.3685302734375	-676.8670043945312	44.72683334350586	-702.8283081054688	-704.7949829101562	47.94657516479492	-607.6450805664062	-853.07568359375	76.09776306152344	-682.1022338867188	
312	3.11	-618.9179077148438	933.73779296875	-547.5140380859375	-563.817138671875	923.2463989257812	-668.4393310546875	-599.324951171875	1008.580505371094	-601.7058715820312	-396.427978515625	1163.794555664062	-482.8388061523438	-612.2694702148438	1113.040771484375	-606.1874389648438	-575.44775390625	1361.746826171875	-590.9948120117188	-443.5782470703125	1282.21533203125	-508.4245300292969	-644.6134643554688	1216.476684570312	-555.2838745117188	-536.2919311523438	1328.001342773438	-685.6741943359375	-439.2929077148438	1343.354858398438	-687.4444580078125	-445.9356079101562	1237.99365234375	-773.7113647460938	-458.3844299316406	1044.012573242188	-815.6465454101562	-535.2222290039062	1033.339599609375	-782.3389282226562	-452.9306640625	807.393798828125	-773.4882202148438	-467.3740234375	814.6561279296875	-855.7032470703125	-462.4188232421875	940.3994140625	-836.1767578125	-509.7149963378906	640.0661010742188	-807.98876953125	-486.0474853515625	729.0345458984375	-857.2484130859375	-458.5909118652344	711.1731567382812	-801.3526611328125	-604.289306640625	1340.848510742188	-427.0752868652344	-647.6407470703125	1275.610473632812	-383.8370361328125	-652.818359375	1015.001586914062	-325.9993591308594	-616.4910278320312	997.30615234375	-413.7743530273438	-450.87109375	898.5327758789062	-243.7157287597656	-501.5034484863281	862.5291137695312	-205.450439453125	-618.2493286132812	965.9343872070312	-286.7151794433594	-359.8329772949219	761.2948608398438	-192.5576782226562	-392.4546813964844	827.0478515625	-188.3054504394531	-450.0501403808594	795.2545776367188	-176.9173736572266	-589.0866088867188	1546.946044921875	-506.0687255859375	-393.7418823242188	1555.026123046875	-534.23193359375	-473.1473999023438	1557.366455078125	-441.1144104003906	-498.7098999023438	1540.929565429688	-638.7046508789062	-432.8477172851562	923.4517211914062	-724.5472412109375	-600.4044189453125	907.7706298828125	-407.1314086914062	-459.3680419921875	915.2909545898438	-388.5704650878906	-353.3346557617188	928.8189697265625	-631.3015747070312	-221.7255859375	484.4195861816406	-604.5264892578125	-280.1162109375	605.960693359375	-647.2633666992188	-152.3103179931641	33.74033737182617	-593.4223022460938	-178.0407562255859	252.1349487304688	-607.9408569335938	-54.92319488525391	91.66510772705078	-410.3714599609375	-127.885871887207	66.94805145263672	-437.6339111328125	-56.43220138549805	56.59380722045898	-515.3894653320312	-217.923583984375	26.27534675598145	-577.3326416015625	-595.107177734375	427.7825317382812	-496.2199096679688	-540.5408935546875	673.5679931640625	-406.5455932617188	-782.9759521484375	70.92115783691406	-618.8186645507812	-621.0014038085938	306.0262756347656	-539.0838012695312	-604.8821411132812	36.0107536315918	-666.32275390625	-675.83935546875	46.0449333190918	-702.23828125	-703.6805419921875	48.35582733154297	-607.1036987304688	-850.8370361328125	82.79779052734375	-681.8526611328125	
